<svg xmlns="http://www.w3.org/2000/svg" width="297.59999999999997" height="35" viewBox="0 0 297.59999999999997 35"><rect class="svg__rect" x="0" y="0" width="94.86" height="35" fill="#31C4F3"/><rect class="svg__rect" x="92.86" y="0" width="204.73999999999998" height="35" fill="#389AD5"/><path class="svg__text" d="M13.97 18.13L13.97 18.13L13.97 17.46Q13.97 15.53 14.90 14.44Q15.82 13.35 17.48 13.35L17.48 13.35Q18.90 13.35 19.74 14.05Q20.58 14.76 20.75 16.08L20.75 16.08L19.30 16.08Q19.05 14.54 17.51 14.54L17.51 14.54Q16.51 14.54 16.00 15.26Q15.48 15.98 15.46 17.37L15.46 17.37L15.46 18.02Q15.46 19.40 16.04 20.17Q16.63 20.93 17.66 20.93L17.66 20.93Q18.80 20.93 19.28 20.42L19.28 20.42L19.28 18.75L17.52 18.75L17.52 17.62L20.76 17.62L20.76 20.89Q20.29 21.50 19.47 21.81Q18.65 22.12 17.61 22.12L17.61 22.12Q16.54 22.12 15.71 21.63Q14.89 21.14 14.44 20.24Q13.99 19.33 13.97 18.13ZM26.86 22L25.37 22L25.37 13.47L28.64 13.47Q30.07 13.47 30.91 14.21Q31.75 14.96 31.75 16.18L31.75 16.18Q31.75 17.44 30.93 18.13Q30.10 18.83 28.62 18.83L28.62 18.83L26.86 18.83L26.86 22ZM26.86 14.66L26.86 17.64L28.64 17.64Q29.43 17.64 29.84 17.27Q30.26 16.90 30.26 16.19L30.26 16.19Q30.26 15.50 29.84 15.09Q29.42 14.68 28.68 14.66L28.68 14.66L26.86 14.66ZM35.79 18.13L35.79 18.13L35.79 17.46Q35.79 15.53 36.71 14.44Q37.64 13.35 39.30 13.35L39.30 13.35Q40.72 13.35 41.56 14.05Q42.39 14.76 42.56 16.08L42.56 16.08L41.11 16.08Q40.87 14.54 39.32 14.54L39.32 14.54Q38.33 14.54 37.81 15.26Q37.29 15.98 37.27 17.37L37.27 17.37L37.27 18.02Q37.27 19.40 37.86 20.17Q38.44 20.93 39.48 20.93L39.48 20.93Q40.61 20.93 41.09 20.42L41.09 20.42L41.09 18.75L39.34 18.75L39.34 17.62L42.57 17.62L42.57 20.89Q42.11 21.50 41.29 21.81Q40.47 22.12 39.42 22.12L39.42 22.12Q38.35 22.12 37.53 21.63Q36.70 21.14 36.25 20.24Q35.80 19.33 35.79 18.13ZM49.81 18.95L46.74 18.95L46.74 17.80L49.81 17.80L49.81 18.95ZM55.60 22L54.11 22L54.11 13.47L55.60 13.47L55.60 17.47L56.42 16.46L58.91 13.47L60.71 13.47L57.54 17.25L60.89 22L59.13 22L56.56 18.31L55.60 19.34L55.60 22ZM70.24 22L64.67 22L64.67 13.47L70.20 13.47L70.20 14.66L66.15 14.66L66.15 17.02L69.65 17.02L69.65 18.19L66.15 18.19L66.15 20.82L70.24 20.82L70.24 22ZM76.48 18.86L73.61 13.47L75.26 13.47L77.22 17.51L79.19 13.47L80.83 13.47L77.97 18.86L77.97 22L76.48 22L76.48 18.86Z" fill="#FFFFFF"/><path class="svg__text" d="M110.97 20.39L106.53 20.39L106.53 18.84L110.30 13.60L112.76 13.60L109.34 18.51L111.04 18.51L111.04 17.08L113.29 17.08L113.29 18.51L114.54 18.51L114.54 20.39L113.29 20.39L113.29 22L110.97 22L110.97 20.39ZM120.40 16.78L118.37 16.78L118.37 13.60L125.33 13.60L125.33 15.09L122.36 22L119.77 22L122.60 15.48L120.40 15.48L120.40 16.78ZM129.25 21.34L129.25 21.34L130.11 19.55Q130.61 19.88 131.22 20.07Q131.83 20.25 132.44 20.25L132.44 20.25Q133.05 20.25 133.41 20.01Q133.78 19.78 133.78 19.36L133.78 19.36Q133.78 18.94 133.42 18.72Q133.06 18.51 132.15 18.51L132.15 18.51L129.87 18.51L130.29 13.60L135.64 13.60L135.64 15.44L132.25 15.44L132.15 16.66L132.71 16.66Q134.48 16.66 135.32 17.38Q136.17 18.10 136.17 19.30L136.17 19.30Q136.17 20.08 135.77 20.73Q135.37 21.39 134.54 21.78Q133.72 22.17 132.51 22.17L132.51 22.17Q131.62 22.17 130.75 21.95Q129.88 21.74 129.25 21.34ZM140.02 21.34L140.02 21.34L140.88 19.55Q141.38 19.88 141.99 20.07Q142.60 20.25 143.21 20.25L143.21 20.25Q143.82 20.25 144.18 20.01Q144.55 19.78 144.55 19.36L144.55 19.36Q144.55 18.94 144.19 18.72Q143.83 18.51 142.92 18.51L142.92 18.51L140.64 18.51L141.06 13.60L146.41 13.60L146.41 15.44L143.02 15.44L142.92 16.66L143.48 16.66Q145.25 16.66 146.09 17.38Q146.94 18.10 146.94 19.30L146.94 19.30Q146.94 20.08 146.54 20.73Q146.14 21.39 145.31 21.78Q144.49 22.17 143.28 22.17L143.28 22.17Q142.39 22.17 141.52 21.95Q140.65 21.74 140.02 21.34ZM158.28 22L151.54 22L151.54 13.60L158.13 13.60L158.13 15.44L153.89 15.44L153.89 16.85L157.63 16.85L157.63 18.63L153.89 18.63L153.89 20.17L158.28 20.17L158.28 22ZM167.06 22L163.09 22L163.09 13.60L167.06 13.60Q168.44 13.60 169.51 14.12Q170.58 14.63 171.16 15.58Q171.75 16.53 171.75 17.80L171.75 17.80Q171.75 19.07 171.16 20.02Q170.58 20.97 169.51 21.48Q168.44 22 167.06 22L167.06 22ZM165.47 15.50L165.47 20.10L166.97 20.10Q168.04 20.10 168.70 19.49Q169.35 18.88 169.35 17.80L169.35 17.80Q169.35 16.72 168.70 16.11Q168.04 15.50 166.97 15.50L166.97 15.50L165.47 15.50ZM181.02 22L176.48 22L176.48 13.60L180.78 13.60Q182.39 13.60 183.23 14.19Q184.07 14.79 184.07 15.79L184.07 15.79Q184.07 16.39 183.77 16.87Q183.48 17.34 182.94 17.62L182.94 17.62Q183.66 17.87 184.07 18.41Q184.47 18.94 184.47 19.70L184.47 19.70Q184.47 20.80 183.59 21.40Q182.70 22 181.02 22L181.02 22ZM178.84 18.58L178.84 20.28L180.83 20.28Q182.08 20.28 182.08 19.43L182.08 19.43Q182.08 18.58 180.83 18.58L180.83 18.58L178.84 18.58ZM178.84 15.31L178.84 16.94L180.47 16.94Q181.67 16.94 181.67 16.12L181.67 16.12Q181.67 15.31 180.47 15.31L180.47 15.31L178.84 15.31ZM190.05 16.17L188.28 15.19Q188.77 14.37 189.66 13.90Q190.55 13.43 191.76 13.43L191.76 13.43Q192.72 13.43 193.46 13.74Q194.19 14.05 194.61 14.64Q195.03 15.22 195.03 15.99L195.03 15.99Q195.03 16.67 194.73 17.28Q194.43 17.89 193.60 18.65L193.60 18.65L192.01 20.11L195.25 20.11L195.25 22L188.71 22L188.71 20.51L191.86 17.57Q192.31 17.14 192.47 16.83Q192.62 16.53 192.62 16.22L192.62 16.22Q192.62 15.81 192.35 15.58Q192.07 15.35 191.55 15.35L191.55 15.35Q191.08 15.35 190.69 15.56Q190.30 15.77 190.05 16.17L190.05 16.17ZM200.72 16.17L198.95 15.19Q199.44 14.37 200.33 13.90Q201.22 13.43 202.43 13.43L202.43 13.43Q203.39 13.43 204.13 13.74Q204.86 14.05 205.28 14.64Q205.70 15.22 205.70 15.99L205.70 15.99Q205.70 16.67 205.40 17.28Q205.10 17.89 204.27 18.65L204.27 18.65L202.68 20.11L205.92 20.11L205.92 22L199.38 22L199.38 20.51L202.53 17.57Q202.98 17.14 203.14 16.83Q203.29 16.53 203.29 16.22L203.29 16.22Q203.29 15.81 203.02 15.58Q202.74 15.35 202.22 15.35L202.22 15.35Q201.75 15.35 201.36 15.56Q200.97 15.77 200.72 16.17L200.72 16.17ZM212.91 22L210.53 22L210.53 13.60L217.12 13.60L217.12 15.44L212.91 15.44L212.91 17.28L216.62 17.28L216.62 19.12L212.91 19.12L212.91 22ZM221.29 18.03L221.29 18.03Q221.29 16.59 221.84 15.55Q222.40 14.51 223.41 13.97Q224.42 13.43 225.75 13.43L225.75 13.43Q226.47 13.43 227.12 13.59Q227.77 13.74 228.22 14.04L228.22 14.04L227.36 15.75Q226.75 15.31 225.81 15.31L225.81 15.31Q224.90 15.31 224.34 15.82Q223.77 16.32 223.68 17.27L223.68 17.27Q224.41 16.65 225.58 16.65L225.58 16.65Q226.37 16.65 227.03 16.98Q227.69 17.31 228.08 17.91Q228.47 18.52 228.47 19.30L228.47 19.30Q228.47 20.15 228.04 20.80Q227.60 21.46 226.85 21.82Q226.10 22.17 225.17 22.17L225.17 22.17Q223.37 22.17 222.33 21.10Q221.29 20.03 221.29 18.03ZM223.85 19.42L223.85 19.42Q223.85 19.89 224.17 20.18Q224.49 20.48 225.03 20.48L225.03 20.48Q225.54 20.48 225.85 20.19Q226.17 19.90 226.17 19.41L226.17 19.41Q226.17 18.93 225.85 18.64Q225.54 18.35 225.02 18.35L225.02 18.35Q224.50 18.35 224.18 18.65Q223.85 18.94 223.85 19.42ZM236.92 20.39L232.47 20.39L232.47 18.84L236.24 13.60L238.70 13.60L235.29 18.51L236.99 18.51L236.99 17.08L239.23 17.08L239.23 18.51L240.48 18.51L240.48 20.39L239.23 20.39L239.23 22L236.92 22L236.92 20.39ZM246.34 16.78L244.31 16.78L244.31 13.60L251.27 13.60L251.27 15.09L248.31 22L245.72 22L248.55 15.48L246.34 15.48L246.34 16.78ZM257.41 16.78L255.38 16.78L255.38 13.60L262.34 13.60L262.34 15.09L259.37 22L256.78 22L259.61 15.48L257.41 15.48L257.41 16.78ZM266.26 21.34L266.26 21.34L267.12 19.55Q267.62 19.88 268.23 20.07Q268.84 20.25 269.45 20.25L269.45 20.25Q270.06 20.25 270.42 20.01Q270.79 19.78 270.79 19.36L270.79 19.36Q270.79 18.94 270.43 18.72Q270.07 18.51 269.16 18.51L269.16 18.51L266.88 18.51L267.30 13.60L272.65 13.60L272.65 15.44L269.26 15.44L269.16 16.66L269.72 16.66Q271.49 16.66 272.33 17.38Q273.18 18.10 273.18 19.30L273.18 19.30Q273.18 20.08 272.78 20.73Q272.38 21.39 271.55 21.78Q270.73 22.17 269.52 22.17L269.52 22.17Q268.63 22.17 267.76 21.95Q266.89 21.74 266.26 21.34ZM281.70 20.39L277.26 20.39L277.26 18.84L281.03 13.60L283.49 13.60L280.08 18.51L281.77 18.51L281.77 17.08L284.02 17.08L284.02 18.51L285.27 18.51L285.27 20.39L284.02 20.39L284.02 22L281.70 22L281.70 20.39Z" fill="#FFFFFF" x="105.86"/></svg>